# xmcd
#
# Track frame offsets: 
#        150
#        11631
#        28056
#        42033
#        57114
#        67995
#        84444
#        94149
#        105198
#        118023
#        127320
#        139449
#
# Disc length: 2038 seconds
#
# Revision: 0
# Processed by: cddbd v1.5.2PL0 Copyright (c) Steve Scherf et al.
# Submitted via: ExactAudioCopy v0.95b4
#
DISCID=9e07f40c
DTITLE=Mark Edelman and Tim Simek - Smoky Mountain Aires Volume #2
DYEAR=2009
DGENRE=Folk
TTITLE0=Rocky Top
TTITLE1=Ashoken's Farewell
TTITLE2=Mr. Bojangles
TTITLE3=Lara's Theme
TTITLE4=Sound of Silence
TTITLE5=Canadian Waltz
TTITLE6=Home Sweet Home/My Old Kentucky Home
TTITLE7=Scarborough Fair
TTITLE8=Love Me Tender
TTITLE9=John Barleycorn
TTITLE10=South Wind
TTITLE11=Mountain Aire
EXTD=
EXTT0=
EXTT1=
EXTT2=
EXTT3=
EXTT4=
EXTT5=
EXTT6=
EXTT7=
EXTT8=
EXTT9=
EXTT10=
EXTT11=
PLAYORDER=
